<svg width="26" height="25" viewBox="0 0 26 25" xmlns="http://www.w3.org/2000/svg">
    <path fill-rule="evenodd" clip-rule="evenodd"
          d="M16.9945 4.00985C16.9152 2.93256 16.0171 2.08398 14.92 2.08398H10.7471L10.5918 2.08969C9.5151 2.1691 8.66691 3.06757 8.66691 4.16523V5.20898L6.08045 5.20615L6.02733 5.20898H5.02108L4.92746 5.21738C4.68449 5.26148 4.50024 5.47413 4.50024 5.72982L4.50864 5.82344C4.55274 6.06641 4.76539 6.25065 5.02108 6.25065H5.54191V18.7757L5.54698 18.9822C5.65461 21.1718 7.46415 22.9142 9.68045 22.9142H15.9867L16.1933 22.9091C18.3829 22.8015 20.1252 20.992 20.1252 18.7757V6.25065H20.6461L20.7397 6.24226C20.9827 6.19816 21.1669 5.9855 21.1669 5.72982C21.1669 5.44217 20.9337 5.20898 20.6461 5.20898L19.6221 5.20615L19.569 5.20898H17.0002V4.16523L16.9945 4.00985ZM6.58358 6.25065H19.0836V18.7757L19.0783 18.9576C18.9841 20.5832 17.6359 21.8725 15.9867 21.8725H9.68045L9.4985 21.8673C7.87291 21.7731 6.58358 20.4248 6.58358 18.7757V6.25065ZM9.18774 8.33398C9.44343 8.33398 9.65609 8.51823 9.70019 8.7612L9.70858 8.85482V19.2715C9.70858 19.5591 9.47539 19.7923 9.18774 19.7923C8.93206 19.7923 8.7194 19.6081 8.6753 19.3651L8.66691 19.2715V8.85482C8.66691 8.56717 8.9001 8.33398 9.18774 8.33398ZM13.346 8.7612C13.3019 8.51823 13.0893 8.33398 12.8336 8.33398C12.5459 8.33398 12.3127 8.56717 12.3127 8.85482V19.2715L12.3211 19.3651C12.3652 19.6081 12.5779 19.7923 12.8336 19.7923C13.1212 19.7923 13.3544 19.5591 13.3544 19.2715V8.85482L13.346 8.7612ZM16.4794 8.33398C16.7351 8.33398 16.9478 8.51823 16.9919 8.7612L17.0002 8.85482V19.2715C17.0002 19.5591 16.7671 19.7923 16.4794 19.7923C16.2237 19.7923 16.0111 19.6081 15.967 19.3651L15.9586 19.2715V8.85482C15.9586 8.56717 16.1918 8.33398 16.4794 8.33398ZM10.7471 3.12565H14.92L15.0412 3.13264C15.558 3.19262 15.9586 3.63154 15.9586 4.16523V5.20898H9.70858V4.16523L9.71556 4.04389C9.77551 3.52646 10.2142 3.12565 10.7471 3.12565Z"/>
</svg>
