<svg height="24" viewBox="0 0 24 24" width="24" xmlns="http://www.w3.org/2000/svg">
    <path d="m21.5000246 21.0004493h-3.957636c2.5997902-1.8354399 4.4402258-5.4893341 4.4402258-9.0093421 0-5.50931706-4.4821901-9.9915072-9.9915072-9.9915072-5.50831791 0-9.9915072 4.48219014-9.9915072 9.9915072 0 5.5103163 4.48318929 9.9915072 9.9915072 9.9915072.2767648 0 .4995754-.2228106.4995754-.4995753 0-.2757656-.2228106-.4995754-.4995754-.4995754-4.95778586 0-8.99235648-4.0335714-8.99235648-8.9923565 0-4.95778586 4.03457062-8.99235648 8.99235648-8.99235648 4.9587851 0 8.9923565 4.03457062 8.9923565 8.99235648 0 3.2012789-1.6495978 6.5114653-3.9796173 8.1720538v-3.4300845c0-.2757656-.2238098-.4995753-.4995754-.4995753s-.4995753.2238097-.4995753.4995753v4.7669481c0 .2757656.2238097.4995754.4995753.4995754h4.9957536c.2757656 0 .4995754-.2238098.4995754-.4995754s-.2238098-.4995753-.4995754-.4995753"
          fill="inherited"/>
</svg>
