<svg height="24" viewBox="0 0 24 24" width="24" xmlns="http://www.w3.org/2000/svg">
    <path d="m21.4970702 15c.2763672 0 .5.223228.5.4990948v2.5354408c0 2.1864642-1.7822265 3.9654644-3.9726562 3.9654644h-12.0517578c-2.1904296 0-3.9726562-1.7790002-3.9726562-3.9654644v-2.5354408c0-.2758668.2236328-.4990948.5-.4990948s.5.223228.5.4990948v2.5354408c0 1.6357053 1.3339844 2.9672747 2.9726562 2.9672747h12.0517579c1.6386718 0 2.9726562-1.3315694 2.9726562-2.9672747v-2.5354408c0-.2758668.2236327-.4990948.4999999-.4990948zm-9.2928571-12.96059124c.0658077.02646282.1250869.0647293.1745734.11295901l3.9645283 3.85368203c.2089136.20307253.2089136.53205008 0 .73512251-.2089137.20307242-.5473539.20307253-.7562674 0l-3.0522284-2.96688965v12.70585164c0 .2873477-.2392062.5198657-.534819.5198657s-.5348189-.232518-.5348189-.5198657v-12.70585153l-3.05222847 2.96688964c-.20891365.20307253-.54735382.20307253-.75626736 0-.10445678-.10153621-.15668527-.23454873-.15668527-.36756125s.05222839-.26602504.15668527-.36756126l3.96452823-3.85368203c.0494864-.0482297.1087657-.08649618.1745735-.11295911.1307016-.05254501.2777246-.05254501.4084261 0z"
          fill="inherit"/>
</svg>
