<svg width="21" height="20" viewBox="0 0 21 20" fill="#ec0000" xmlns="http://www.w3.org/2000/svg">
    <path d="M10.3333 0C15.8473 0 20.3333 4.486 20.3333 10C20.3333 15.514 15.8473 20 10.3333 20C4.81925 20 0.333252 15.514 0.333252 10C0.333252 4.486 4.81925 0 10.3333 0ZM15.0257 5.0781C14.7927 4.9321 14.4837 4.9961 14.3347 5.2301L9.52265 12.7661L6.19365 9.3071L6.12536 9.24825C5.93268 9.1104 5.66265 9.12521 5.48665 9.2941C5.28765 9.4851 5.28165 9.8021 5.47265 10.0011L9.24265 13.9171L9.30361 13.971C9.38985 14.0355 9.49465 14.0701 9.60265 14.0701L9.65265 14.0671C9.80465 14.0531 9.94165 13.9691 10.0247 13.8401L15.1777 5.7691L15.2193 5.68894C15.3093 5.46941 15.2319 5.21054 15.0257 5.0781Z"/>
</svg>
