<svg xmlns="http://www.w3.org/2000/svg" width="24" height="27" viewBox="0 0 24 27" fill="none">
  <path fill-rule="evenodd" clip-rule="evenodd"
        d="M9.79482 0.799758C11.5492 0.615388 13.3303 0.79687 15.0235 1.34137C17.3543 2.09093 19.4195 3.49662 20.9717 5.39002C22.524 7.28342 23.4973 9.58422 23.7753 12.0167C24.0532 14.4493 23.6239 16.9103 22.5387 19.105C21.4536 21.2998 19.7586 23.1351 17.657 24.3911C15.5554 25.6471 13.1362 26.2704 10.6893 26.1865C8.24235 26.1026 5.87153 25.315 3.86086 23.918C2.40024 22.9032 1.17468 21.5981 0.256076 20.0921C-0.319121 19.1491 0.180672 17.969 1.20203 17.5485L2.531 17.0012C4.32849 21.3596 9.12439 23.8126 13.8004 22.5597C18.8826 21.1979 21.8986 15.974 20.5368 10.8917C19.1751 5.80949 13.9511 2.79346 8.86891 4.15525C8.79497 4.17506 8.72147 4.19569 8.64842 4.21712L8.34793 3.09571C8.06205 2.02878 8.6963 0.915204 9.79482 0.799758Z"
        fill="currentColor"/>
</svg>
